#N canvas 48 432 936 601 10;
#X obj 52 120 gemwin;
#X msg 56 39 create \, 1;
#X msg 82 71 0 \, destroy;
#X msg 136 97 dimen 320 240;
#X obj 196 182 gemhead;
#X obj 198 158 tgl 15 0 empty empty empty 17 7 0 10 -262144 -1 -1 1
1;
#X obj 195 311 pix_film;
#X msg 236 260 open \$1;
#X obj 236 238 openpanel;
#X obj 235 220 bng 15 250 50 0 empty empty empty 17 7 0 10 -262144
-1 -1;
#X obj 216 362 unpack f f f;
#X floatatom 209 405 5 0 0 0 - - -;
#X floatatom 249 404 5 0 0 0 - - -;
#X floatatom 293 403 5 0 0 0 - - -;
#X obj 438 465 pix_texture;
#X obj 438 490 rectangle 6 4;
#X msg 137 266 auto \$1;
#X obj 138 235 tgl 15 0 empty empty empty 17 7 0 10 -262144 -1 -1 0
1;
#X obj 520 172 gemhead;
#X obj 522 148 tgl 15 0 empty empty empty 17 7 0 10 -262144 -1 -1 1
1;
#X obj 519 301 pix_film;
#X msg 577 250 open \$1;
#X obj 577 228 openpanel;
#X obj 576 210 bng 15 250 50 0 empty empty empty 17 7 0 10 -262144
-1 -1;
#X obj 540 352 unpack f f f;
#X floatatom 533 392 5 0 0 0 - - -;
#X floatatom 577 393 5 0 0 0 - - -;
#X floatatom 619 393 5 0 0 0 - - -;
#X msg 467 251 auto \$1;
#X obj 466 219 tgl 15 0 empty empty empty 17 7 0 10 -262144 -1 -1 0
1;
#X obj 438 441 pix_mix 0;
#X obj 566 468 knob 32 32 0 1 0 0 empty empty empty 0 -8 0 8 -262144
-1 -1 1800 1;
#X obj 496 56 cup;
#X obj 491 100 % 2253;
#X obj 568 104 % 5693;
#X obj 497 30 metro 125;
#X obj 497 7 tgl 15 0 empty empty empty 17 7 0 10 -262144 -1 -1 0 1
;
#X obj 749 60 adc~;
#X obj 748 91 fiddle~;
#X floatatom 748 117 5 0 0 0 - - -;
#X obj 749 146 knob 32 32 0 127 0 0 empty empty empty 0 -8 0 8 -262144
-1 -1 1235 1;
#X obj 749 192 / 126;
#X floatatom 750 222 5 0 0 0 - - -;
#X connect 1 0 0 0;
#X connect 2 0 0 0;
#X connect 3 0 0 0;
#X connect 4 0 6 0;
#X connect 5 0 4 0;
#X connect 6 0 30 0;
#X connect 6 1 10 0;
#X connect 7 0 6 0;
#X connect 8 0 7 0;
#X connect 9 0 8 0;
#X connect 10 0 11 0;
#X connect 10 1 12 0;
#X connect 10 2 13 0;
#X connect 14 0 15 0;
#X connect 16 0 6 0;
#X connect 17 0 16 0;
#X connect 18 0 20 0;
#X connect 19 0 18 0;
#X connect 20 0 30 1;
#X connect 20 1 24 0;
#X connect 21 0 20 0;
#X connect 22 0 21 0;
#X connect 23 0 22 0;
#X connect 24 0 25 0;
#X connect 24 1 26 0;
#X connect 24 2 27 0;
#X connect 28 0 20 0;
#X connect 29 0 28 0;
#X connect 30 0 14 0;
#X connect 31 0 30 2;
#X connect 32 0 33 0;
#X connect 32 0 34 0;
#X connect 33 0 6 1;
#X connect 34 0 20 1;
#X connect 35 0 32 0;
#X connect 36 0 35 0;
#X connect 37 0 38 0;
#X connect 38 0 39 0;
#X connect 39 0 40 0;
#X connect 40 0 41 0;
#X connect 41 0 42 0;
