#N canvas 1116 48 743 842 10;
#X obj 116 262 bng 15 250 50 0 empty empty empty 17 7 0 10 -262144
-1 -1;
#X floatatom 137 389 5 0 0 0 - - -, f 5;
#X obj 138 344 random 100;
#X msg 269 314 seed 17;
#X obj 117 294 metro 100;
#X obj 116 262 bng 15 250 50 0 empty empty empty 17 7 0 10 -262144
-1 -1;
#X floatatom 137 389 5 0 0 0 - - -, f 5;
#X obj 138 344 random 100;
#X msg 269 314 seed 17;
#X obj 481 264 bng 15 250 50 0 empty empty empty 17 7 0 10 -262144
-1 -1;
#X floatatom 502 391 5 0 0 0 - - -, f 5;
#X obj 503 346 random 100;
#X msg 634 316 seed 17;
#X obj 482 296 metro 100;
#X obj 481 264 bng 15 250 50 0 empty empty empty 17 7 0 10 -262144
-1 -1;
#X floatatom 502 391 5 0 0 0 - - -, f 5;
#X obj 503 346 random 100;
#X msg 634 316 seed 17;
#X obj 285 146 bng 15 250 50 0 empty empty empty 17 7 0 10 -262144
-1 -1;
#X obj 117 294 metro 1000;
#X obj 482 296 metro 1000;
#X obj 162 581 randomF 1;
#X connect 0 0 19 0;
#X connect 2 0 1 0;
#X connect 3 0 2 0;
#X connect 4 0 7 0;
#X connect 5 0 4 0;
#X connect 7 0 6 0;
#X connect 8 0 7 0;
#X connect 9 0 20 0;
#X connect 11 0 10 0;
#X connect 12 0 11 0;
#X connect 13 0 16 0;
#X connect 14 0 13 0;
#X connect 16 0 15 0;
#X connect 17 0 16 0;
#X connect 18 0 0 0;
#X connect 18 0 9 0;
#X connect 19 0 2 0;
#X connect 20 0 11 0;
